<svg width="56" height="48" viewBox="0 0 56 48" fill="none" xmlns="http://www.w3.org/2000/svg">
<path d="M25.4883 47.8125H0V28.1836C0 20.957 1.50391 15.2539 4.51172 11.0742C7.51953 6.89453 12.6758 3.20313 19.9805 0L25.4883 10.4297C20.9961 12.5391 17.8906 14.6484 16.1719 16.7578C14.4531 18.8281 13.4961 21.2891 13.3008 24.1406H25.4883V47.8125ZM55.1953 47.8125H29.707V28.1836C29.707 20.957 31.2109 15.2539 34.2188 11.0742C37.2266 6.89453 42.3828 3.20313 49.6875 0L55.1953 10.4297C50.7031 12.5391 47.5977 14.6484 45.8789 16.7578C44.1602 18.8281 43.2031 21.2891 43.0078 24.1406H55.1953V47.8125Z" fill="#D0CBCA"/>
</svg>
